<?xml version="1.0" encoding="utf-8"?>
<!-- Generator: Adobe Illustrator 17.0.0, SVG Export Plug-In . SVG Version: 6.00 Build 0)  -->
<!DOCTYPE svg PUBLIC "-//W3C//DTD SVG 1.1//EN" "http://www.w3.org/Graphics/SVG/1.1/DTD/svg11.dtd">
<svg version="1.1" id="Layer_1" xmlns="http://www.w3.org/2000/svg" xmlns:xlink="http://www.w3.org/1999/xlink" x="0px" y="0px"
	 width="500px" height="500px" viewBox="0 0 500 500" enable-background="new 0 0 500 500" xml:space="preserve">
<g>
	<path fill="#B7B7B7" d="M241.154,195.127c2.127,3.955,7.682,4.8,10.83,1.588c2.196-2.228,2.781-5.142,2.841-8.048
		c0.163-7.213,0.051-14.667,0.051-21.667c0.023,0,0.051,0,0.074,0c0-7,0.084-13.147-0.042-19.738
		c-0.051-2.256-0.441-4.531-0.989-6.704c-0.831-3.352-3.138-5.274-6.513-5.348c-2.622-0.066-5.351,0.752-6.633,4.465
		c-0.72,2.126-1.262,4.419-1.281,6.629c-0.121,13.777-0.084,27.535-0.037,41.302C239.469,190.216,239.901,192.778,241.154,195.127z"
		/>
	<path fill="#B7B7B7" d="M300.309,323.844c0.014-5.886,0.055-11.772-0.993-17.584c-0.641-3.573-1.926-6.906-4.605-9.413
		c-3.792-3.546-8.397-4.001-13.22-2.831c-3.862,0.965-7.266,3.212-10.055,5.979c-1.003,1.011-1.436,2.089-3.436,3.388
		c0-0.789,0-1.235,0-1.662c0-12.282,0.224-24.555,0.271-36.865c0.005-1.254-0.236-1.532-1.429-1.523
		c-4.507,0.074-8.935,0.066-13.438,0.019c-1.087-0.019-1.386,0.26-1.386,1.401c0.037,23.822,0.044,47.625,0.044,71.428
		c0,15.986,0.016,31.963-0.021,47.931c0,1.058,0.26,1.356,1.341,1.337c4.465-0.065,8.676-0.028,13.128-0.037
		c1.792,0,1.491,0.418,1.491-1.717c0-2.228,0-4.457,0-6.675c1,0.177,0.99,0.492,1.25,0.761c3.597,3.992,7.655,7.445,13.123,8.735
		c6.981,1.634,13.926-2.311,15.982-9.117c1.383-4.595,1.845-9.311,1.882-14.046C300.334,350.182,300.281,337.008,300.309,323.844z
		 M284.035,361.535c-0.01,2.507-0.409,5.004-1.662,7.278c-1.378,2.507-3.964,3.621-6.787,3.157c-2.641-0.446-4.79-1.718-6.619-3.574
		c-0.334-0.325-0.464-0.993-0.464-1.504c-0.028-8.959-0.019-17.899-0.019-26.839c0-8.93,0.01-17.833-0.009-26.755
		c0-0.761,0.185-1.346,0.76-1.885c2.033-1.894,4.354-3.212,7.13-3.341c2.874-0.14,5.181,0.844,6.434,4.317
		c0.738,2.052,1.193,4.326,1.206,6.526C284.109,333.118,284.09,347.332,284.035,361.535z"/>
	<path fill="#B7B7B7" d="M186.557,263.352c-18.322,0.018-36.629,0.018-54.932,0c-1.007,0-1.304,0.297-1.295,1.299
		c0.042,4.771,0.047,9.553-0.01,14.334c-0.013,1.068,0.293,1.213,1.36,1.204c5.575-0.056,11.159-0.19,16.743-0.19
		c0.423,0,0.576,0,1.576,0c0,1,0,1.418,0,1.845c0,5.83,0,11.66,0,17.481c0,28.222-0.061,56.462-0.093,84.685
		c0,1.105,0.254,1.411,1.373,1.401c5.096-0.065,10.294-0.018,15.4-0.018c0.38,0,0.321-0.037,1.321-0.066c0-0.399,0-0.686,0-0.956
		c0-34.163-0.102-68.336-0.135-102.518c0-1.188,0.227-1.579,1.481-1.56c5.705,0.065,11.372,0.01,17.072,0.047
		c1.007,0.01,1.416-0.195,1.402-1.319c-0.055-4.818-0.058-9.637-0.007-14.454C187.817,263.584,187.481,263.352,186.557,263.352z"/>
	<path fill="#B7B7B7" d="M246,17.68C114.744,17.68,8.34,124.089,8.34,255.34C8.34,386.601,114.744,493,246,493
		s237.66-106.399,237.66-237.66C483.66,124.089,377.256,17.68,246,17.68z M285.112,122.798c0-1.559-0.005-1.559,1.583-1.559
		c4.497-0.01,8.996,0,13.493,0c1.569,0,1.573-0.01,1.573,1.578c0,23.404-0.005,46.817,0.01,70.221c0,0.919,0.116,1.829,0.32,2.72
		c0.464,2.209,2.274,3.323,4.521,2.887c2.994-0.594,5.166-2.469,7.125-4.641c0.696-0.78,1.378-1.588,1.926-2.46
		c0.307-0.51,0.441-1.188,0.441-1.811c0.014-22.28,0.009-44.579,0.014-66.851c0-0.501,0.05-1.021,0.074-1.643
		c5.338,0,10.472-0.01,15.61,0.037c0.292,0,0.645,0.473,0.849,0.807c0.13,0.204,0.033,0.557,0.033,0.836
		c0,29.429-0.01,58.867,0.018,88.296c0,1.003-0.214,1.621-1.318,1.603c-4.613-0.056-9.236,0.182-13.856,0.182c-0.39,0-0.53,0-1.53,0
		c0-4,0-6.649,0-9.425c-1,0.826-2.104,1.643-3.116,2.581c-3.458,3.156-7.044,6.043-11.714,7.222c-3.063,0.78-6.117,0.78-9.083-0.353
		c-3.072-1.169-5.076-3.518-5.73-6.647c-0.696-3.314-1.18-6.721-1.199-10.101C285.062,171.769,285.112,147.289,285.112,122.798z
		 M222.675,148.968c0.093-4.734,0.538-9.478,2.279-13.934c3.143-8.058,8.927-13.126,17.555-14.519
		c6.127-0.993,12.115-0.427,17.509,2.98c6.141,3.88,9.558,9.562,10.764,16.682c0.826,4.883,0.966,9.794,0.943,14.752
		c-0.029,9.831,0.092,19.663-0.051,29.503c-0.079,5.273-0.589,10.564-2.665,15.541c-2.246,5.365-5.922,9.497-11.261,11.743
		c-8.146,3.444-16.279,3.241-23.914-1.513c-5.129-3.185-8.257-7.947-9.701-13.805c-1.072-4.344-1.494-8.745-1.49-13.22
		c0.009-5.394,0-10.76,0-16.145C222.643,161.001,222.559,154.985,222.675,148.968z M160.554,90.018
		c5.537-0.01,11.08,0.028,16.618-0.037c1.165-0.019,1.629,0.408,1.898,1.457c1.29,4.921,2.646,9.812,3.964,14.724
		c1.531,5.682,3.068,11.363,4.581,17.035c1.235,4.595,2.423,9.21,3.639,13.805c0.037,0.092,0.158,0.166,0.395,0.408
		c0.362-1.29,0.71-2.441,1.021-3.612c1.82-7.092,3.611-14.194,5.45-21.287c1.509-5.83,3.082-11.679,4.605-17.528
		c0.38-1.392,0.691-2.803,1.1-4.187c0.102-0.316,0.562-0.742,0.854-0.742c5.89-0.037,11.781-0.028,17.936-0.028
		c-0.25,0.984-0.436,1.828-0.691,2.683c-2.85,9.469-5.7,18.939-8.574,28.389c-2.65,8.773-5.338,17.528-7.998,26.291
		c-1.472,4.819-2.934,9.646-4.34,14.483c-0.251,0.836-0.279,1.754-0.279,2.618c-0.01,15.456-0.01,30.914-0.01,46.381
		c0,1.754,0,1.754-1.8,1.754c-5.13,0-10.273-0.046-15.407,0.019c-1.137,0.018-1.411-0.325-1.411-1.411
		c0.032-15.662,0.116-31.314-0.051-46.976c-0.032-2.979-0.877-6.016-1.652-8.93c-1.55-5.923-3.235-11.818-5.022-17.686
		c-1.42-4.66-3.073-9.228-4.633-13.851c-1.648-4.846-3.296-9.701-4.958-14.538c-2.033-5.942-4.099-11.873-6.155-17.805
		c-0.129-0.418-0.218-0.845-0.361-1.365C159.769,90.055,160.164,90.018,160.554,90.018z M386.888,330.556
		c-0.237,9.571-0.747,19.124-1.388,28.667c-0.454,6.806-1.184,13.591-2,20.341c-0.552,4.576-1.23,9.163-2.261,13.619
		c-1.203,5.217-4.011,9.655-7.645,13.554c-4.41,4.753-9.813,7.919-15.995,9.766c-3.515,1.059-7.176,1.198-10.811,1.383
		c-6.327,0.325-12.644,0.65-18.976,0.956c-5.594,0.251-11.197,0.483-16.808,0.678c-8.049,0.288-16.093,0.538-24.142,0.789
		c-2.01,0.066-4.015,0.148-6.011,0.158c-18.67,0.093-37.334,0.195-56.003,0.232c-6.531,0.019-13.076-0.121-19.612-0.241
		c-5.848-0.111-11.706-0.297-17.546-0.473c-4.21-0.158-8.406-0.324-12.607-0.501c-7.088-0.297-14.176-0.594-21.25-0.974
		c-4.758-0.241-9.534-0.436-14.274-0.947c-7.816-0.864-14.514-4.169-20.173-9.664c-4.169-4.067-7.176-8.82-8.704-14.39
		c-0.826-3.045-1.243-6.193-1.675-9.339c-0.683-5.004-1.277-10.008-1.787-15.04c-0.465-4.539-0.84-9.107-1.138-13.665
		c-0.371-5.459-0.664-10.945-0.891-16.413c-0.125-3.212-0.079-6.443-0.079-9.637c-0.005-4.614-0.13-9.247,0.065-13.86
		c0.339-7.677,0.78-15.355,1.375-23.033c0.519-6.544,1.155-13.099,2.032-19.615c0.66-4.893,0.929-9.897,2.739-14.604
		c1.393-3.63,3.286-6.898,5.788-9.877c3.945-4.726,8.801-8.105,14.533-10.258c3.779-1.421,7.71-2.117,10.328-2.164
		c8.054-0.38,14.701-0.715,21.343-0.984c8.175-0.372,16.34-0.696,24.514-0.984c5.765-0.195,11.539-0.418,17.305-0.446
		c21.232-0.148,42.477-0.213,63.703-0.288c4.61-0.018,9.233-0.028,13.852,0.056c6.136,0.121,12.258,0.335,18.386,0.52
		c4.362,0.139,8.731,0.279,13.099,0.473c5.877,0.26,11.758,0.585,17.643,0.854c5.394,0.26,10.802,0.576,16.2,0.771
		c7.859,0.288,15.063,2.488,21.325,7.315c6.8,5.236,11.316,12.031,12.649,20.563c1.295,8.291,2.237,16.655,3.026,25.038
		c0.706,7.399,1.109,14.863,1.449,22.299C386.772,317.633,387.041,324.094,386.888,330.556z"/>
	<path fill="#B7B7B7" d="M331.33,342.978c9.998,0,19.992-0.01,29.986,0.028c1.184,0,1.453-0.344,1.443-1.476
		c-0.055-5.71-0.032-11.41-0.032-17.1c0.009-4.262-0.251-8.476-1.184-12.672c-1.541-6.907-5.143-12.311-11.484-15.588
		c-6.8-3.518-13.967-3.676-21.097-1.151c-6.54,2.33-11.039,6.87-13.383,13.499c-1.61,4.52-2.028,9.192-2.135,13.908
		c-0.129,5.867-0.037,11.575-0.037,17.575c-0.042,0-0.088,0-0.13,0c0.14,7,0.158,14.778,0.474,22.15
		c0.203,4.948,1.318,9.798,4.056,14.004c3.639,5.616,8.778,9.095,15.438,10.218c5.46,0.919,10.82,0.709,15.913-1.557
		c6.837-3.063,11.334-8.344,12.714-15.669c0.863-4.595,0.612-9.404,0.868-14.12c0.037-0.733-0.325-0.872-0.966-0.872
		c-4.971,0.01-9.952,0.019-14.923-0.008c-0.655,0-0.855,0.25-0.836,0.854c0.023,0.854,0.042,1.681-0.005,2.525
		c-0.158,2.869-0.116,5.793-0.58,8.616c-0.552,3.472-3.059,5.533-6.392,5.848c-3.634,0.335-6.55-1.337-7.933-4.576
		c-1.053-2.433-1.388-5.014-1.411-7.622c-0.056-5.05-0.019-10.128-0.019-15.179C329.677,342.986,329.677,342.978,331.33,342.978z
		 M330.226,315.721c0.232-2.571,1.304-5.023,3.639-6.443c3.694-2.265,9.891-1.726,11.576,4.512c0.702,2.591,0.803,5.357,1.003,8.059
		c0.144,2.079-0.023,4.177,0.051,6.267c0.047,1.095-0.353,1.374-1.383,1.346c-2.367-0.066-4.74-0.019-7.107-0.019
		c-2.404-0.009-4.808-0.009-7.222-0.009c-0.59,0-1.133,0.019-1.101-0.854C329.868,324.299,329.864,320.001,330.226,315.721z"/>
	<path fill="#B7B7B7" d="M237.654,297.673c0-0.733-0.024-1.457,0.005-2.172c0.023-0.649-0.182-0.956-0.887-0.956
		c-4.823,0.019-9.637,0.009-14.454,0c-0.65,0-0.979,0.241-0.934,0.938c0.033,0.427,0.01,0.863,0.01,1.318
		c0,21.993,0,43.996-0.013,65.997c0,0.557,0.06,1.225-0.223,1.644c-2.14,2.971-4.475,5.774-8.021,7.185
		c-3.207,1.272-5.956-0.241-6.318-3.472c-0.139-1.272-0.213-2.553-0.213-3.834c-0.01-22.773-0.014-45.537,0.018-68.3
		c0.005-1.179-0.348-1.523-1.504-1.504c-4.41,0.056-8.824,0.028-13.234,0.028c-1.546,0-1.546-0.01-1.546,1.495
		c0,22.652-0.005,45.304,0.014,67.928c0,2.979,0.042,5.941,0.218,8.912c0.191,2.952,0.478,5.932,1.829,8.634
		c2.363,4.762,7.432,5.942,12.533,5.106c4.219-0.678,7.761-2.879,10.927-5.691c1.81-1.596,3.523-3.314,5.463-5.161
		c0.032,0.575,0.069,0.956,0.069,1.337c0,2.33,0.066,4.67-0.023,6.99c-0.056,1.207,0.395,1.476,1.517,1.467
		c4.415-0.055,8.825-0.074,13.248,0c1.211,0.019,1.546-0.297,1.546-1.531C237.64,355.241,237.654,326.443,237.654,297.673z"/>
</g>
<g>
</g>
<g>
</g>
<g>
</g>
<g>
</g>
<g>
</g>
<g>
</g>
<g>
</g>
<g>
</g>
<g>
</g>
<g>
</g>
<g>
</g>
<g>
</g>
<g>
</g>
<g>
</g>
<g>
</g>
</svg>
